<mxfile host="app.diagrams.net" modified="2024-06-26T07:49:58.000Z" agent="Mozilla/5.0 (Windows NT 10.0; Win64; x64) AppleWebKit/537.36 (KHTML, like Gecko) Chrome/126.0.0.0 Safari/537.36" version="24.5.4" etag="ZA959crabx-KnPgbP8Y-" type="github">
  <diagram name="Page-1" id="Ae1S91Tt0jCZasC4Yhdq">
    <mxGraphModel>
      <root>
        <mxCell id="0" />
        <mxCell id="1" parent="0" />
      </root>
    </mxGraphModel>
  </diagram>
</mxfile>
